<mxfile host="app.diagrams.net" modified="2024-03-13T06:56:07.200Z" agent="Mozilla/5.0 (Windows NT 10.0; Win64; x64) AppleWebKit/537.36 (KHTML, like Gecko) Chrome/122.0.0.0 Safari/537.36" etag="evmCKov-n5zqNr6K1kIe" version="23.1.7" type="github">
  <diagram name="第 1 页" id="CWC5emMc-5nlQ2NkqbzQ">
    <mxGraphModel dx="1136" dy="579" grid="1" gridSize="10" guides="1" tooltips="1" connect="1" arrows="1" fold="1" page="1" pageScale="1" pageWidth="827" pageHeight="1169" math="0" shadow="0">
      <root>
        <mxCell id="0" />
        <mxCell id="1" parent="0" />
        <mxCell id="8KoYwJnWjwu7ebCnGzD--8" value="" style="edgeStyle=orthogonalEdgeStyle;rounded=0;orthogonalLoop=1;jettySize=auto;html=1;" edge="1" parent="1" source="8KoYwJnWjwu7ebCnGzD--2" target="8KoYwJnWjwu7ebCnGzD--7">
          <mxGeometry relative="1" as="geometry" />
        </mxCell>
        <mxCell id="8KoYwJnWjwu7ebCnGzD--2" value="获取进程句柄" style="rounded=0;whiteSpace=wrap;html=1;" vertex="1" parent="1">
          <mxGeometry x="210" y="320" width="120" height="60" as="geometry" />
        </mxCell>
        <mxCell id="8KoYwJnWjwu7ebCnGzD--10" value="" style="edgeStyle=orthogonalEdgeStyle;rounded=0;orthogonalLoop=1;jettySize=auto;html=1;" edge="1" parent="1" source="8KoYwJnWjwu7ebCnGzD--3" target="8KoYwJnWjwu7ebCnGzD--9">
          <mxGeometry relative="1" as="geometry" />
        </mxCell>
        <mxCell id="8KoYwJnWjwu7ebCnGzD--3" value="获取文件句柄" style="rounded=0;whiteSpace=wrap;html=1;" vertex="1" parent="1">
          <mxGeometry x="380" y="320" width="120" height="60" as="geometry" />
        </mxCell>
        <mxCell id="8KoYwJnWjwu7ebCnGzD--16" value="" style="edgeStyle=orthogonalEdgeStyle;rounded=0;orthogonalLoop=1;jettySize=auto;html=1;" edge="1" parent="1" source="8KoYwJnWjwu7ebCnGzD--4" target="8KoYwJnWjwu7ebCnGzD--15">
          <mxGeometry relative="1" as="geometry" />
        </mxCell>
        <mxCell id="8KoYwJnWjwu7ebCnGzD--4" value="回调&lt;br&gt;PreAccessCallback" style="rounded=0;whiteSpace=wrap;html=1;" vertex="1" parent="1">
          <mxGeometry x="550" y="320" width="120" height="60" as="geometry" />
        </mxCell>
        <mxCell id="8KoYwJnWjwu7ebCnGzD--19" value="" style="edgeStyle=orthogonalEdgeStyle;rounded=0;orthogonalLoop=1;jettySize=auto;html=1;" edge="1" parent="1" source="8KoYwJnWjwu7ebCnGzD--5" target="8KoYwJnWjwu7ebCnGzD--6">
          <mxGeometry relative="1" as="geometry" />
        </mxCell>
        <mxCell id="8KoYwJnWjwu7ebCnGzD--5" value="发起可信接入请求" style="rounded=0;whiteSpace=wrap;html=1;" vertex="1" parent="1">
          <mxGeometry x="380" y="120" width="120" height="60" as="geometry" />
        </mxCell>
        <mxCell id="8KoYwJnWjwu7ebCnGzD--20" style="edgeStyle=orthogonalEdgeStyle;rounded=0;orthogonalLoop=1;jettySize=auto;html=1;entryX=0.5;entryY=0;entryDx=0;entryDy=0;" edge="1" parent="1" source="8KoYwJnWjwu7ebCnGzD--6" target="8KoYwJnWjwu7ebCnGzD--2">
          <mxGeometry relative="1" as="geometry" />
        </mxCell>
        <mxCell id="8KoYwJnWjwu7ebCnGzD--21" style="edgeStyle=orthogonalEdgeStyle;rounded=0;orthogonalLoop=1;jettySize=auto;html=1;entryX=0.5;entryY=0;entryDx=0;entryDy=0;" edge="1" parent="1" source="8KoYwJnWjwu7ebCnGzD--6" target="8KoYwJnWjwu7ebCnGzD--3">
          <mxGeometry relative="1" as="geometry" />
        </mxCell>
        <mxCell id="8KoYwJnWjwu7ebCnGzD--22" style="edgeStyle=orthogonalEdgeStyle;rounded=0;orthogonalLoop=1;jettySize=auto;html=1;entryX=0.5;entryY=0;entryDx=0;entryDy=0;" edge="1" parent="1" source="8KoYwJnWjwu7ebCnGzD--6" target="8KoYwJnWjwu7ebCnGzD--4">
          <mxGeometry relative="1" as="geometry" />
        </mxCell>
        <mxCell id="8KoYwJnWjwu7ebCnGzD--6" value="启动数据采集阶段" style="rounded=0;whiteSpace=wrap;html=1;" vertex="1" parent="1">
          <mxGeometry x="380" y="220" width="120" height="60" as="geometry" />
        </mxCell>
        <mxCell id="8KoYwJnWjwu7ebCnGzD--12" value="" style="edgeStyle=orthogonalEdgeStyle;rounded=0;orthogonalLoop=1;jettySize=auto;html=1;" edge="1" parent="1" source="8KoYwJnWjwu7ebCnGzD--7" target="8KoYwJnWjwu7ebCnGzD--11">
          <mxGeometry relative="1" as="geometry" />
        </mxCell>
        <mxCell id="8KoYwJnWjwu7ebCnGzD--7" value="遍历进程PID" style="rounded=0;whiteSpace=wrap;html=1;" vertex="1" parent="1">
          <mxGeometry x="210" y="420" width="120" height="60" as="geometry" />
        </mxCell>
        <mxCell id="8KoYwJnWjwu7ebCnGzD--14" value="" style="edgeStyle=orthogonalEdgeStyle;rounded=0;orthogonalLoop=1;jettySize=auto;html=1;" edge="1" parent="1" source="8KoYwJnWjwu7ebCnGzD--9" target="8KoYwJnWjwu7ebCnGzD--13">
          <mxGeometry relative="1" as="geometry" />
        </mxCell>
        <mxCell id="8KoYwJnWjwu7ebCnGzD--9" value="遍历文件句柄" style="rounded=0;whiteSpace=wrap;html=1;" vertex="1" parent="1">
          <mxGeometry x="380" y="420" width="120" height="60" as="geometry" />
        </mxCell>
        <mxCell id="8KoYwJnWjwu7ebCnGzD--25" style="edgeStyle=orthogonalEdgeStyle;rounded=0;orthogonalLoop=1;jettySize=auto;html=1;entryX=0;entryY=0.5;entryDx=0;entryDy=0;exitX=0.5;exitY=1;exitDx=0;exitDy=0;" edge="1" parent="1" source="8KoYwJnWjwu7ebCnGzD--11" target="8KoYwJnWjwu7ebCnGzD--23">
          <mxGeometry relative="1" as="geometry" />
        </mxCell>
        <mxCell id="8KoYwJnWjwu7ebCnGzD--11" value="采集进程数据" style="rounded=0;whiteSpace=wrap;html=1;" vertex="1" parent="1">
          <mxGeometry x="210" y="530" width="120" height="60" as="geometry" />
        </mxCell>
        <mxCell id="8KoYwJnWjwu7ebCnGzD--24" value="" style="edgeStyle=orthogonalEdgeStyle;rounded=0;orthogonalLoop=1;jettySize=auto;html=1;" edge="1" parent="1" source="8KoYwJnWjwu7ebCnGzD--13" target="8KoYwJnWjwu7ebCnGzD--23">
          <mxGeometry relative="1" as="geometry" />
        </mxCell>
        <mxCell id="8KoYwJnWjwu7ebCnGzD--13" value="采集文件数据" style="rounded=0;whiteSpace=wrap;html=1;" vertex="1" parent="1">
          <mxGeometry x="380" y="530" width="120" height="60" as="geometry" />
        </mxCell>
        <mxCell id="8KoYwJnWjwu7ebCnGzD--18" value="" style="edgeStyle=orthogonalEdgeStyle;rounded=0;orthogonalLoop=1;jettySize=auto;html=1;" edge="1" parent="1" source="8KoYwJnWjwu7ebCnGzD--15" target="8KoYwJnWjwu7ebCnGzD--17">
          <mxGeometry relative="1" as="geometry" />
        </mxCell>
        <mxCell id="8KoYwJnWjwu7ebCnGzD--15" value="接入判定" style="rounded=0;whiteSpace=wrap;html=1;" vertex="1" parent="1">
          <mxGeometry x="550" y="420" width="120" height="60" as="geometry" />
        </mxCell>
        <mxCell id="8KoYwJnWjwu7ebCnGzD--26" style="edgeStyle=orthogonalEdgeStyle;rounded=0;orthogonalLoop=1;jettySize=auto;html=1;entryX=1;entryY=0.5;entryDx=0;entryDy=0;exitX=0.5;exitY=1;exitDx=0;exitDy=0;" edge="1" parent="1" source="8KoYwJnWjwu7ebCnGzD--17" target="8KoYwJnWjwu7ebCnGzD--23">
          <mxGeometry relative="1" as="geometry" />
        </mxCell>
        <mxCell id="8KoYwJnWjwu7ebCnGzD--17" value="回调&lt;br style=&quot;border-color: var(--border-color);&quot;&gt;PostAccessCallback" style="rounded=0;whiteSpace=wrap;html=1;" vertex="1" parent="1">
          <mxGeometry x="550" y="530" width="120" height="60" as="geometry" />
        </mxCell>
        <mxCell id="8KoYwJnWjwu7ebCnGzD--23" value="数据上传" style="rounded=0;whiteSpace=wrap;html=1;" vertex="1" parent="1">
          <mxGeometry x="380" y="630" width="120" height="60" as="geometry" />
        </mxCell>
      </root>
    </mxGraphModel>
  </diagram>
</mxfile>
